{"title":"10000 BC 2008 DVDRip Xvid BigPerm LKRG ","uid":6770707,"size":1244223456,"categoryP":"video","categoryS":"movies","magnet":"?xt=urn:btih:3ddecc38a97d298ed0fa002512188089ac4973a6&amp;dn=10000+BC+2008+DVDRip+Xvid+BigPerm+LKRG+&amp;tr=udp%3A%2F%2Ftracker.openbittorrent.com%3A80&amp;tr=udp%3A%2F%2Fopen.demonii.com%3A1337&amp;tr=udp%3A%2F%2Ftracker.coppersurfer.tk%3A6969&amp;tr=udp%3A%2F%2Fexodus.desync.com%3A6969","seeders":1,"leechers":0,"uploader":".BONE.","files":2,"time":1319565228,"description":"10,000 BC 2008 DVDRip Xvid BigPerm LKRG \n\n\nPLOT\n\nA prehistoric epic that follows a young mammoth hunter's journey through uncharted\nterritory to secure the future of his tribe.\n\n &lt;a href=&quot;\nhttp://www.imdb.com/title/tt0443649/&quot; rel=&quot;nofollow&quot; target=&quot;_NEW&quot;&gt;\nhttp://www.imdb.com/title/tt0443649/&lt;/a&gt;\n\n\nEncoded By .......: BP-LKRG\nRuntime ..........: 1h 48mn\nFile Size ........: 1.16 GB\nResolution .......: 704 x 304\nIMDb URL .........: http://www.imdb.com/title/tt0443649/\nGenre ............: Adventure | Fantasy\nLanguage .........: English\nSubtitles ........: English\nVideo\nID : 0\nFormat : MPEG-4 Visual\nFormat profile : Advanced Simple@L5\nFormat settings, BVOP : Yes\nFormat settings, QPel : No\nFormat settings, GMC : No warppoints\nFormat settings, Matrix : Default (H.263)\nCodec ID : XVID\nCodec ID/Hint : XviD\nDuration : 1h 48mn\nBit rate : 46.8 Kbps\nWidth : 704 pixels\nHeight : 396 pixels\nDisplay aspect ratio : 16:9\nFrame rate : 23.976 fps\nColor space : YUV\nChroma subsampling : 4:2:0\nBit depth : 8 bits\nScan type : Progressive\nCompression mode : Lossy\nBits/(Pixel*Frame) : 0.007\nStream size : 36.4 MiB (3%)\nWriting library : XviD 1.2.1 (UTC 2008-12-04)\nAudio\nID : 1\nFormat : AC-3\nFormat/Info : Audio Coding 3\nCodec ID : 2000\nDuration : 1h 48mn\nBit rate mode : Constant\nBit rate : 448 Kbps\nChannel(s) : 6 channels\nSampling rate : 48.0 KHz\nBit depth : 16 bits\nCompression mode : Lossy\nStream size : 349 MiB (29%)\nAlignment : Aligned on interleaves\n","torrent":{"xt":"urn:btih:3ddecc38a97d298ed0fa002512188089ac4973a6","amp;dn":"10000+BC+2008+DVDRip+Xvid+BigPerm+LKRG+","amp;tr":["udp%3A%2F%2Ftracker.openbittorrent.com%3A80","udp%3A%2F%2Fopen.demonii.com%3A1337","udp%3A%2F%2Ftracker.coppersurfer.tk%3A6969","udp%3A%2F%2Fexodus.desync.com%3A6969"],"infoHash":"3ddecc38a97d298ed0fa002512188089ac4973a6","infoHashBuffer":{"type":"Buffer","data":[61,222,204,56,169,125,41,142,208,250,0,37,18,24,128,137,172,73,115,166]},"announce":[],"urlList":[]}}